<?xml version="1.0" encoding="iso-8859-1"?>
<!-- Generator: Adobe Illustrator 17.0.0, SVG Export Plug-In . SVG Version: 6.00 Build 0)  -->
<!DOCTYPE svg PUBLIC "-//W3C//DTD SVG 1.1//EN" "http://www.w3.org/Graphics/SVG/1.1/DTD/svg11.dtd">
<svg version="1.1" id="Layer_1" xmlns="http://www.w3.org/2000/svg" xmlns:xlink="http://www.w3.org/1999/xlink" x="0px" y="0px"
	 width="100px" height="100px" viewBox="0 0 100 100" style="enable-background:new 0 0 100 100;" xml:space="preserve">
<path style="opacity:0.8;fill:#FFFFFF;" d="M93.992,48.964c-0.001-0.06-0.004-0.121-0.006-0.181
	c-0.008-0.288-0.017-0.575-0.031-0.862c-0.003-0.059-0.007-0.117-0.01-0.176c-0.015-0.294-0.032-0.587-0.052-0.879
	c-0.003-0.041-0.007-0.082-0.01-0.124c-0.023-0.313-0.049-0.626-0.078-0.938c-0.002-0.023-0.005-0.047-0.007-0.07
	c-0.032-0.335-0.068-0.669-0.108-1.001c0-0.002-0.001-0.005-0.001-0.007c-0.381-3.192-1.104-6.279-2.131-9.223
	c-0.018-0.053-0.037-0.106-0.056-0.159c-0.09-0.255-0.182-0.509-0.277-0.762c-0.036-0.095-0.072-0.191-0.108-0.286
	c-0.078-0.203-0.157-0.406-0.238-0.608c-0.052-0.131-0.104-0.262-0.158-0.393c-0.062-0.151-0.126-0.302-0.19-0.453
	c-0.073-0.173-0.146-0.345-0.221-0.517c-0.02-0.046-0.042-0.092-0.062-0.139c-2.135-4.826-5.177-9.348-9.132-13.303L57.334,42.666
	l2.423,11.891l3.127-15.455c0.06-0.289,0.215-0.517,0.465-0.686c0.18-0.129,0.375-0.194,0.585-0.194c0.07,0,0.14,0.01,0.21,0.03
	c0.31,0.06,0.55,0.214,0.72,0.463c0.12,0.19,0.175,0.384,0.165,0.583c0,0.08-0.005,0.16-0.015,0.239l-4.13,20.342
	c-0.06,0.247-0.193,0.45-0.398,0.608c-0.206,0.159-0.428,0.238-0.668,0.238h-0.06h-0.105c-0.25,0-0.475-0.082-0.675-0.246
	c-0.2-0.164-0.32-0.365-0.36-0.603L55.499,44.5l-5.88,5.88v9.464c0,0.288-0.102,0.536-0.305,0.745
	c-0.204,0.208-0.459,0.313-0.767,0.313c-0.288,0-0.536-0.107-0.745-0.32c-0.208-0.213-0.313-0.459-0.313-0.737V52.51L18.883,81.116
	c3.667,3.667,7.822,6.549,12.254,8.651c0.001,0.001,0.002,0.001,0.003,0.001c0.846,0.401,1.701,0.774,2.565,1.118
	c0.101,0.04,0.203,0.079,0.304,0.119c0.31,0.121,0.621,0.238,0.933,0.351c0.13,0.047,0.259,0.095,0.389,0.141
	c0.38,0.134,0.761,0.263,1.143,0.386c0.183,0.059,0.368,0.114,0.552,0.171c0.217,0.067,0.433,0.133,0.651,0.196
	c0.221,0.065,0.443,0.127,0.666,0.189c0.179,0.049,0.359,0.095,0.538,0.142c0.427,0.111,0.856,0.216,1.287,0.314
	c0.149,0.034,0.298,0.069,0.448,0.102c0.252,0.055,0.504,0.106,0.758,0.156c0.166,0.033,0.332,0.065,0.499,0.096
	c0.248,0.047,0.496,0.093,0.746,0.135c0.356,0.06,0.713,0.116,1.07,0.168c0.213,0.031,0.428,0.057,0.642,0.085
	c0.233,0.03,0.466,0.059,0.699,0.085c0.197,0.022,0.394,0.044,0.592,0.064c0.405,0.04,0.811,0.077,1.217,0.106
	c0.107,0.007,0.214,0.012,0.321,0.019c0.358,0.023,0.716,0.042,1.075,0.056c0.133,0.005,0.266,0.01,0.399,0.014
	c0.455,0.014,0.91,0.024,1.365,0.024h0c0.363,0,0.727-0.005,1.09-0.014c0.174-0.004,0.348-0.012,0.522-0.019
	c0.183-0.007,0.367-0.012,0.55-0.021c0.239-0.012,0.476-0.027,0.714-0.043c0.114-0.007,0.228-0.013,0.342-0.022
	c0.279-0.02,0.558-0.044,0.836-0.07c0.07-0.006,0.14-0.012,0.21-0.019c0.31-0.03,0.618-0.064,0.926-0.1
	c0.036-0.004,0.073-0.008,0.109-0.012c0.334-0.04,0.667-0.085,0.999-0.132c0.01-0.001,0.02-0.003,0.03-0.004
	c2.114-0.305,4.179-0.759,6.185-1.353c0.013-0.004,0.025-0.007,0.037-0.011c0.317-0.094,0.632-0.191,0.945-0.292
	c0.04-0.013,0.081-0.026,0.121-0.039c0.284-0.092,0.567-0.187,0.849-0.285c0.076-0.026,0.151-0.053,0.227-0.08
	c0.245-0.087,0.489-0.175,0.731-0.266c0.116-0.043,0.232-0.088,0.348-0.132c0.201-0.077,0.402-0.155,0.602-0.235
	c0.157-0.063,0.314-0.128,0.471-0.192c0.156-0.065,0.313-0.13,0.468-0.197c0.199-0.085,0.397-0.172,0.595-0.26
	c0.112-0.05,0.224-0.1,0.336-0.151c0.236-0.108,0.472-0.218,0.706-0.33c0.072-0.035,0.145-0.069,0.217-0.104
	c0.268-0.13,0.535-0.262,0.801-0.398c0.038-0.019,0.077-0.039,0.115-0.058c0.293-0.15,0.584-0.304,0.874-0.461
	c0.012-0.007,0.024-0.013,0.036-0.019c1.838-0.999,3.62-2.137,5.33-3.417c0.008-0.006,0.016-0.012,0.023-0.018
	c0.269-0.201,0.536-0.406,0.801-0.614c0.028-0.022,0.056-0.045,0.084-0.067c0.244-0.192,0.487-0.387,0.727-0.586
	c0.054-0.045,0.108-0.09,0.162-0.135c0.214-0.179,0.428-0.358,0.64-0.541c0.087-0.075,0.172-0.151,0.257-0.227
	c0.179-0.157,0.358-0.314,0.534-0.474c0.135-0.122,0.267-0.248,0.401-0.371c0.129-0.12,0.258-0.238,0.386-0.359
	c0.526-0.501,1.04-1.015,1.541-1.541c0.12-0.126,0.237-0.254,0.355-0.381c0.125-0.135,0.251-0.268,0.375-0.405
	c0.159-0.176,0.315-0.353,0.471-0.531c0.077-0.087,0.155-0.174,0.231-0.262c0.183-0.211,0.361-0.424,0.539-0.638
	c0.046-0.055,0.092-0.109,0.137-0.164c0.197-0.239,0.39-0.48,0.582-0.722c0.024-0.03,0.048-0.06,0.072-0.09
	c0.207-0.263,0.41-0.529,0.61-0.796c0.007-0.009,0.014-0.018,0.021-0.028c1.279-1.709,2.417-3.49,3.415-5.327
	c0.007-0.013,0.014-0.027,0.022-0.04c0.156-0.288,0.309-0.577,0.458-0.868c0.021-0.041,0.042-0.082,0.063-0.123
	c0.134-0.263,0.266-0.527,0.394-0.793c0.036-0.075,0.072-0.15,0.108-0.226c0.11-0.232,0.219-0.464,0.325-0.697
	c0.053-0.116,0.104-0.232,0.156-0.348c0.086-0.194,0.172-0.388,0.255-0.583c0.068-0.159,0.135-0.319,0.201-0.478
	c0.064-0.154,0.127-0.307,0.189-0.462c0.082-0.203,0.161-0.408,0.24-0.613c0.043-0.112,0.086-0.224,0.128-0.336
	c0.092-0.246,0.182-0.493,0.269-0.741c0.026-0.073,0.052-0.145,0.077-0.218c0.099-0.285,0.195-0.571,0.288-0.858
	c0.012-0.037,0.024-0.073,0.036-0.11c0.102-0.318,0.201-0.637,0.296-0.958c0.002-0.008,0.005-0.015,0.007-0.023
	c0.595-2.01,1.051-4.079,1.356-6.197c0.001-0.004,0.001-0.008,0.002-0.012c0.048-0.337,0.093-0.676,0.134-1.016
	c0.004-0.03,0.007-0.06,0.01-0.09c0.037-0.314,0.071-0.628,0.102-0.944c0.006-0.064,0.011-0.128,0.017-0.192
	c0.026-0.284,0.051-0.568,0.071-0.853c0.008-0.106,0.013-0.213,0.02-0.319c0.016-0.245,0.032-0.49,0.044-0.737
	c0.008-0.17,0.013-0.34,0.019-0.51c0.007-0.187,0.016-0.374,0.02-0.562c0.008-0.33,0.012-0.661,0.013-0.992
	c0-0.032,0.001-0.063,0.001-0.095C94.004,49.654,94,49.309,93.992,48.964z M72.179,56.314c0.045,0.278,0.121,0.574,0.231,0.887
	c0.109,0.313,0.278,0.593,0.506,0.842c0.447,0.487,1.107,0.73,1.981,0.73c0.913,0,1.593-0.254,2.04-0.76
	c0.228-0.248,0.397-0.514,0.506-0.797c0.109-0.283,0.188-0.557,0.238-0.82c0.05-0.263,0.074-0.489,0.074-0.678v-0.268
	c-0.02-0.308,0.071-0.573,0.273-0.797c0.202-0.223,0.456-0.345,0.762-0.365c0.286-0.02,0.545,0.072,0.777,0.276
	c0.232,0.204,0.357,0.444,0.377,0.722v0.462c0,0.268-0.045,0.606-0.134,1.013c-0.178,1.142-0.604,2.056-1.277,2.742
	c-0.911,0.974-2.124,1.46-3.638,1.46c-1.529,0-2.731-0.486-3.604-1.459c-0.348-0.347-0.623-0.764-0.827-1.251
	c-0.204-0.486-0.355-1.022-0.454-1.608c-0.06-0.367-0.089-0.685-0.089-0.953v-0.551V43.404c0-0.933,0.146-1.747,0.439-2.442
	c0.293-0.695,0.672-1.266,1.139-1.713c0.466-0.447,0.995-0.777,1.586-0.99c0.59-0.213,1.184-0.32,1.78-0.32
	c0.366,0,0.869,0.072,1.507,0.216c0.639,0.144,1.25,0.478,1.834,1.003c0.406,0.347,0.797,0.855,1.173,1.523
	c0.376,0.669,0.564,1.573,0.564,2.712c0,0.308-0.106,0.567-0.318,0.775c-0.212,0.208-0.471,0.313-0.776,0.313
	c-0.306,0-0.565-0.107-0.777-0.32c-0.212-0.214-0.318-0.469-0.318-0.768c0-0.755-0.117-1.351-0.35-1.789
	c-0.233-0.437-0.512-0.762-0.834-0.976c-0.323-0.213-0.643-0.35-0.961-0.41c-0.318-0.06-0.566-0.09-0.745-0.09
	c-0.348,0-0.68,0.06-0.998,0.179c-0.318,0.119-0.586,0.293-0.804,0.521c-0.625,0.566-0.943,1.421-0.953,2.564v11.804v0.089v0.328
	C72.112,55.802,72.134,56.036,72.179,56.314z"/>
<path style="fill:#FFFFFF;" d="M47.489,43.761l-3.479,6.806c-0.099,0.288-0.273,0.491-0.52,0.611
	c-0.198,0.08-0.357,0.119-0.476,0.119c-0.099,0-0.186-0.01-0.26-0.03c-0.074-0.02-0.151-0.05-0.23-0.089
	c-0.268-0.119-0.451-0.322-0.55-0.611l-3.434-6.806v16.084c0,0.288-0.108,0.536-0.322,0.745c-0.215,0.208-0.467,0.313-0.757,0.313
	c-0.31,0-0.572-0.104-0.787-0.313c-0.215-0.208-0.322-0.456-0.322-0.745V39.279v-0.06v-0.03v-0.03c0.02,0,0.03-0.01,0.03-0.03V39.1
	v-0.06c0.02-0.039,0.05-0.124,0.089-0.253l0.045-0.03v-0.03l0.03-0.03v-0.03c0.02,0,0.03-0.01,0.03-0.03
	c0.04-0.039,0.065-0.069,0.075-0.089c0.01-0.02,0.035-0.039,0.075-0.06l0.03-0.03c0-0.02,0.01-0.03,0.03-0.03h0.03V38.4h0.03
	c0-0.02,0.01-0.03,0.03-0.03h0.03v-0.03h0.03h0.03c0-0.02,0.01-0.03,0.03-0.03c0.02,0,0.03-0.005,0.03-0.015
	c0-0.01,0.01-0.015,0.03-0.015h0.03l0.03-0.03h0.045h0.03h0.03c0-0.02,0.01-0.03,0.03-0.03h0.03h0.06h0.06h0.03h0.03h0.03h0.03h0.03
	h0.03h0.03h0.03l0.03,0.03c0.08,0,0.165,0.02,0.255,0.06c0.02,0.02,0.04,0.03,0.06,0.03c0,0.02,0.01,0.03,0.03,0.03l0.031,0.03
	c0.02,0,0.04,0.01,0.06,0.03c0.06,0.06,0.11,0.099,0.15,0.119c0,0.02,0.01,0.03,0.03,0.03v0.03l0.03,0.03v0.03
	c0.02,0,0.03,0.01,0.03,0.03l0.029,0.03v0.03l0.029,0.03l4.61,9.04l4.594-9.04v-0.03l0.03-0.03v-0.03h0.03v-0.03l0.03-0.03
	c0-0.02,0.01-0.03,0.03-0.03v-0.03c0.079-0.079,0.139-0.129,0.179-0.149c0-0.02,0.015-0.03,0.045-0.03h0.03
	c0-0.02,0.01-0.03,0.03-0.03v-0.03h0.03h0.03c0-0.02,0.01-0.03,0.03-0.03c0.02-0.02,0.045-0.03,0.074-0.03s0.064-0.01,0.104-0.03
	h0.03h0.03c0-0.02,0.01-0.03,0.03-0.03h0.03h0.03h0.03h0.03h0.06h0.074h0.06h0.03h0.03h0.03v0.03h0.03h0.03h0.03h0.03v0.03h0.06
	l0.03,0.03h0.03l0.03,0.03h0.06v0.03h0.03v0.03h0.03l0.03,0.03c0.02,0,0.035,0.01,0.045,0.03h0.03l0.03,0.03
	c0.039,0.02,0.079,0.07,0.119,0.149c0.02,0,0.03,0.01,0.03,0.03l0.03,0.03v0.03l0.03,0.03l0.03,0.03
	c0.039,0.08,0.06,0.154,0.06,0.223v0.03h0.03v0.06v0.03v0.03v0.03v0.03v0.06v11.102l5.88-5.88l-1.008-4.969
	c-0.02-0.079-0.025-0.159-0.015-0.238c0-0.198,0.06-0.392,0.179-0.581c0.159-0.258,0.382-0.412,0.671-0.462
	c0.069-0.02,0.139-0.03,0.208-0.03c0.208,0,0.407,0.065,0.596,0.194c0.258,0.169,0.417,0.397,0.477,0.685l0.727,3.566l20.677-20.677
	l0,0l3.105-3.105c-3.958-3.958-8.484-7.002-13.314-9.137c-0.042-0.019-0.084-0.038-0.126-0.057c-0.174-0.076-0.35-0.15-0.525-0.224
	c-0.148-0.063-0.296-0.125-0.444-0.187c-0.133-0.054-0.266-0.107-0.399-0.16c-0.2-0.08-0.4-0.158-0.601-0.235
	c-0.098-0.037-0.195-0.074-0.293-0.111c-0.251-0.094-0.502-0.185-0.755-0.275c-0.055-0.019-0.11-0.039-0.165-0.058
	c-2.942-1.026-6.026-1.748-9.215-2.13c-0.006-0.001-0.012-0.001-0.018-0.002c-0.329-0.039-0.659-0.075-0.991-0.107
	C54.243,6.2,54.217,6.197,54.19,6.194c-0.307-0.029-0.615-0.055-0.924-0.077c-0.046-0.003-0.092-0.007-0.138-0.011
	c-0.287-0.02-0.575-0.037-0.864-0.052c-0.063-0.003-0.126-0.007-0.189-0.01c-0.277-0.013-0.556-0.022-0.834-0.03
	c-0.07-0.002-0.139-0.005-0.209-0.007C50.689,5.999,50.345,5.995,50,5.995h0h0c-0.363,0-0.726,0.005-1.089,0.014
	c-0.178,0.004-0.356,0.012-0.534,0.019c-0.179,0.007-0.358,0.012-0.538,0.02c-0.241,0.012-0.481,0.028-0.722,0.043
	c-0.111,0.007-0.223,0.013-0.334,0.021c-0.281,0.02-0.562,0.045-0.841,0.07c-0.068,0.006-0.136,0.012-0.204,0.018
	c-0.311,0.03-0.622,0.064-0.931,0.101c-0.035,0.004-0.07,0.008-0.104,0.012c-0.335,0.04-0.67,0.085-1.003,0.132
	c-0.009,0.001-0.017,0.002-0.026,0.004c-2.115,0.304-4.181,0.759-6.188,1.354c-0.012,0.003-0.023,0.007-0.035,0.01
	c-0.317,0.094-0.633,0.192-0.947,0.293c-0.04,0.013-0.08,0.026-0.121,0.039c-0.284,0.092-0.567,0.187-0.849,0.285
	c-0.076,0.026-0.151,0.053-0.226,0.08c-0.245,0.087-0.489,0.175-0.732,0.266c-0.116,0.043-0.231,0.087-0.346,0.132
	c-0.202,0.077-0.403,0.156-0.603,0.236c-0.157,0.063-0.314,0.127-0.47,0.192c-0.157,0.065-0.314,0.13-0.47,0.197
	c-0.198,0.085-0.396,0.172-0.594,0.26c-0.112,0.05-0.224,0.1-0.336,0.151c-0.237,0.108-0.473,0.218-0.708,0.33
	c-0.072,0.034-0.143,0.068-0.215,0.103c-0.269,0.13-0.536,0.263-0.802,0.399c-0.038,0.02-0.076,0.039-0.115,0.058
	c-0.293,0.15-0.585,0.305-0.876,0.462c-0.011,0.006-0.022,0.012-0.033,0.018c-1.839,0.999-3.622,2.138-5.333,3.418
	c-0.006,0.005-0.013,0.01-0.019,0.015c-0.27,0.202-0.538,0.407-0.805,0.617c-0.027,0.021-0.053,0.042-0.08,0.063
	c-0.245,0.194-0.489,0.389-0.731,0.589c-0.053,0.043-0.104,0.088-0.157,0.131c-0.216,0.18-0.431,0.36-0.644,0.545
	c-0.085,0.074-0.169,0.149-0.253,0.223c-0.18,0.158-0.361,0.316-0.539,0.478c-0.132,0.12-0.262,0.242-0.392,0.363
	c-0.131,0.122-0.264,0.243-0.394,0.367c-0.526,0.501-1.039,1.014-1.54,1.54c-0.125,0.131-0.246,0.265-0.369,0.397
	c-0.12,0.129-0.241,0.258-0.36,0.389c-0.162,0.179-0.321,0.36-0.48,0.54c-0.074,0.084-0.149,0.168-0.222,0.252
	c-0.184,0.213-0.364,0.427-0.543,0.642c-0.044,0.053-0.089,0.106-0.133,0.16c-0.199,0.241-0.393,0.484-0.586,0.728
	c-0.022,0.028-0.044,0.056-0.066,0.084c-0.209,0.265-0.413,0.533-0.615,0.802c-0.005,0.007-0.011,0.014-0.016,0.021
	c-1.28,1.711-2.42,3.494-3.418,5.333c-0.006,0.01-0.011,0.021-0.017,0.031c-0.158,0.291-0.312,0.583-0.463,0.877
	c-0.019,0.038-0.039,0.076-0.058,0.114c-0.136,0.266-0.269,0.534-0.398,0.802c-0.035,0.072-0.069,0.144-0.104,0.216
	c-0.112,0.234-0.222,0.47-0.33,0.706c-0.051,0.113-0.102,0.226-0.152,0.339c-0.088,0.197-0.174,0.394-0.259,0.592
	C9.466,32.843,9.401,33,9.336,33.157c-0.065,0.157-0.129,0.314-0.192,0.471c-0.08,0.2-0.158,0.401-0.236,0.603
	c-0.044,0.115-0.088,0.23-0.131,0.346c-0.091,0.243-0.179,0.487-0.266,0.732c-0.027,0.076-0.054,0.152-0.08,0.228
	c-0.098,0.281-0.193,0.564-0.285,0.848c-0.013,0.04-0.026,0.08-0.039,0.121c-0.101,0.314-0.199,0.63-0.293,0.948
	c-0.003,0.011-0.007,0.023-0.01,0.034c-0.594,2.007-1.049,4.073-1.354,6.188c-0.001,0.009-0.002,0.017-0.004,0.026
	c-0.048,0.333-0.092,0.667-0.132,1.003c-0.004,0.035-0.008,0.07-0.012,0.105c-0.036,0.309-0.07,0.619-0.1,0.93
	c-0.007,0.07-0.012,0.14-0.019,0.21c-0.025,0.278-0.05,0.556-0.07,0.836c-0.008,0.114-0.014,0.227-0.022,0.341
	c-0.015,0.238-0.031,0.475-0.043,0.714c-0.009,0.181-0.014,0.363-0.021,0.544c-0.006,0.176-0.015,0.351-0.019,0.528
	c-0.02,0.818-0.015,1.636,0.01,2.453c0.004,0.134,0.009,0.267,0.014,0.401c0.014,0.358,0.033,0.716,0.056,1.074
	c0.007,0.107,0.012,0.214,0.019,0.321c0.029,0.406,0.065,0.812,0.106,1.217c0.02,0.198,0.042,0.395,0.064,0.593
	c0.026,0.233,0.055,0.465,0.085,0.697c0.028,0.215,0.054,0.43,0.085,0.643c0.051,0.357,0.107,0.714,0.168,1.07
	c0.042,0.249,0.089,0.496,0.135,0.744c0.031,0.167,0.063,0.334,0.096,0.501c0.05,0.252,0.101,0.505,0.156,0.755
	c0.033,0.152,0.069,0.303,0.104,0.454c0.098,0.429,0.202,0.857,0.313,1.281c0.047,0.179,0.093,0.359,0.142,0.538
	c0.061,0.223,0.124,0.446,0.189,0.668c0.063,0.217,0.129,0.433,0.195,0.649c0.057,0.185,0.112,0.37,0.171,0.553
	c0.123,0.383,0.253,0.763,0.386,1.143c0.046,0.13,0.094,0.259,0.141,0.389c0.113,0.312,0.23,0.623,0.351,0.933
	c0.039,0.101,0.078,0.202,0.118,0.303c0.344,0.865,0.717,1.72,1.118,2.566c0.001,0.001,0.001,0.002,0.002,0.003
	c2.102,4.432,4.984,8.587,8.651,12.255l6.258-6.258l2.294-2.294l0,0l6.101-6.101h0L47.489,52.51V43.761z M31.201,60.59
	c-0.214,0.208-0.464,0.313-0.752,0.313h-8.116c-0.288,0-0.539-0.104-0.752-0.313c-0.214-0.208-0.32-0.456-0.32-0.745V39.279
	c0-0.288,0.106-0.536,0.318-0.745c0.212-0.208,0.461-0.313,0.747-0.313c0.305,0,0.559,0.107,0.761,0.32
	c0.202,0.214,0.303,0.459,0.303,0.737v19.464h7.057c0.288,0,0.539,0.107,0.753,0.32c0.214,0.214,0.321,0.474,0.321,0.782
	C31.522,60.133,31.415,60.381,31.201,60.59z"/>
<path style="fill:#FFFFFF;" d="M85.356,14.645C75.91,5.202,63.354,0,50,0S24.088,5.202,14.644,14.646C5.201,24.089,0,36.645,0,50
	c0,13.354,5.202,25.91,14.645,35.355C24.088,94.799,36.644,100,50,100c13.354,0,25.91-5.201,35.356-14.645
	C94.799,75.911,100,63.355,100,50C100,36.645,94.799,24.089,85.356,14.645z M97.06,50c0,25.948-21.111,47.059-47.06,47.059
	c-12.551,0-24.364-4.901-33.26-13.798c-8.9-8.898-13.8-20.711-13.8-33.26C2.941,24.052,24.052,2.941,50,2.941
	c12.551,0,24.363,4.9,33.26,13.798C92.159,25.638,97.06,37.45,97.06,50z"/>
</svg>
