<?xml version="1.0" encoding="utf-8"?>
<!-- Generator: Adobe Illustrator 17.0.0, SVG Export Plug-In . SVG Version: 6.00 Build 0)  -->
<!DOCTYPE svg PUBLIC "-//W3C//DTD SVG 1.1//EN" "http://www.w3.org/Graphics/SVG/1.1/DTD/svg11.dtd">
<svg version="1.1" id="Layer_1" xmlns="http://www.w3.org/2000/svg" xmlns:xlink="http://www.w3.org/1999/xlink" x="0px" y="0px"
	 width="512px" height="512px" viewBox="702.5 0.5 512 512" enable-background="new 702.5 0.5 512 512" xml:space="preserve">
<path fill="#333333" d="M958.5,0c-141.385,0-256,114.615-256,256s114.615,256,256,256s256-114.615,256-256S1099.885,0,958.5,0z
	 M1077.692,153.5c7.035,0,12.738,5.703,12.738,12.738v24.367L958.5,265.823l-131.93-75.218v-24.367
	c0-7.035,5.703-12.738,12.738-12.738H1077.692z M1023.238,252.636l67.193-38.301v108.735L1023.238,252.636z M826.57,214.335
	l67.193,38.301l-67.193,70.434V214.335z M839.308,352.969c-3.562,0-6.779-1.466-9.091-3.823l82.019-85.966l46.264,26.373
	l46.264-26.373l82.019,85.966c-2.312,2.357-5.528,3.823-9.091,3.823H839.308z"/>
</svg>
