<?xml version="1.0" encoding="utf-8"?>
<!-- Generator: Adobe Illustrator 17.0.0, SVG Export Plug-In . SVG Version: 6.00 Build 0)  -->
<!DOCTYPE svg PUBLIC "-//W3C//DTD SVG 1.1//EN" "http://www.w3.org/Graphics/SVG/1.1/DTD/svg11.dtd">
<svg version="1.1" id="Layer_1" xmlns="http://www.w3.org/2000/svg" xmlns:xlink="http://www.w3.org/1999/xlink" x="0px" y="0px"
	 width="512px" height="512px" viewBox="-0.5 0.5 512 512" enable-background="new -0.5 0.5 512 512" xml:space="preserve">
<path fill="#333333" d="M255.5,0.5c-141.385,0-256,114.615-256,256s114.615,256,256,256s256-114.615,256-256S396.885,0.5,255.5,0.5z
	 M383.24,197.961c-14.418,81.219-94.981,149.999-119.211,165.714c-24.238,15.712-46.344-6.293-54.36-22.925
	c-9.178-18.981-36.687-121.826-43.887-130.351c-7.202-8.508-28.818,8.525-28.818,8.525l-10.484-13.746
	c0,0,43.893-52.412,77.288-58.964c35.412-6.949,35.358,54.373,43.875,88.414c8.238,32.931,13.773,51.776,20.964,51.776
	c7.206,0,20.967-18.367,36.026-46.52c15.087-28.181-0.652-53.076-30.134-35.363C286.296,133.767,397.652,116.755,383.24,197.961z"/>
</svg>
